<mxfile host="Electron" modified="2023-08-30T10:15:29.162Z" agent="Mozilla/5.0 (Macintosh; Intel Mac OS X 10_15_7) AppleWebKit/537.36 (KHTML, like Gecko) draw.io/21.6.8 Chrome/114.0.5735.289 Electron/25.5.0 Safari/537.36" etag="bP81WV5jhUBh7FRAsT-r" version="21.6.8" type="device" pages="4">
  <diagram id="arUw2AD56AtyqMGTvUxu" name="Mauer und Betonplatte">
    <mxGraphModel dx="1306" dy="821" grid="1" gridSize="10" guides="1" tooltips="1" connect="1" arrows="1" fold="1" page="1" pageScale="1" pageWidth="827" pageHeight="1169" math="0" shadow="0">
      <root>
        <mxCell id="0" />
        <mxCell id="1" parent="0" />
        <mxCell id="bNWo4qMjO5p3vfD7yrDm-2" value="" style="rounded=0;whiteSpace=wrap;html=1;fillColor=#f5f5f5;fontColor=#333333;strokeColor=#666666;" parent="1" vertex="1">
          <mxGeometry x="96" y="557" width="640" height="40" as="geometry" />
        </mxCell>
        <mxCell id="bNWo4qMjO5p3vfD7yrDm-3" value="" style="rounded=0;whiteSpace=wrap;html=1;fillColor=#f5f5f5;fontColor=#333333;strokeColor=#666666;" parent="1" vertex="1">
          <mxGeometry x="40" y="603" width="80" height="197" as="geometry" />
        </mxCell>
        <mxCell id="bNWo4qMjO5p3vfD7yrDm-4" value="" style="rounded=0;whiteSpace=wrap;html=1;fillColor=#f5f5f5;fontColor=#333333;strokeColor=#666666;" parent="1" vertex="1">
          <mxGeometry x="40" y="160" width="80" height="390" as="geometry" />
        </mxCell>
        <mxCell id="bNWo4qMjO5p3vfD7yrDm-5" value="" style="rounded=0;whiteSpace=wrap;html=1;fillColor=#f5f5f5;fontColor=#333333;strokeColor=#666666;imageHeight=20;" parent="1" vertex="1">
          <mxGeometry x="40" y="550" width="50" height="53" as="geometry" />
        </mxCell>
        <mxCell id="bNWo4qMjO5p3vfD7yrDm-6" value="15" style="shape=dimension;direction=north;whiteSpace=wrap;html=1;align=center;points=[];verticalAlign=bottom;labelBackgroundColor=none;horizontal=0;spacingBottom=3;" parent="1" vertex="1">
          <mxGeometry x="180" y="557" width="10" height="40" as="geometry" />
        </mxCell>
        <mxCell id="bNWo4qMjO5p3vfD7yrDm-7" value="50" style="shape=dimension;direction=north;whiteSpace=wrap;html=1;align=center;points=[];verticalAlign=bottom;labelBackgroundColor=none;horizontal=0;spacingBottom=3;rotation=90;" parent="1" vertex="1">
          <mxGeometry x="75" y="490" width="10" height="80" as="geometry" />
        </mxCell>
        <mxCell id="bNWo4qMjO5p3vfD7yrDm-10" value="15" style="shape=dimension;direction=north;whiteSpace=wrap;html=1;align=center;points=[];verticalAlign=bottom;labelBackgroundColor=none;horizontal=0;spacingBottom=3;rotation=90;" parent="1" vertex="1">
          <mxGeometry x="100" y="603" width="10" height="29" as="geometry" />
        </mxCell>
        <mxCell id="bNWo4qMjO5p3vfD7yrDm-11" value="20" style="shape=dimension;direction=north;whiteSpace=wrap;html=1;align=center;points=[];verticalAlign=bottom;labelBackgroundColor=none;horizontal=0;spacingBottom=3;" parent="1" vertex="1">
          <mxGeometry x="20" y="552" width="10" height="50" as="geometry" />
        </mxCell>
        <mxCell id="bNWo4qMjO5p3vfD7yrDm-14" value="" style="rounded=0;whiteSpace=wrap;html=1;fillColor=#f5f5f5;fontColor=#333333;strokeColor=#666666;" parent="1" vertex="1">
          <mxGeometry x="711" y="603" width="80" height="197" as="geometry" />
        </mxCell>
        <mxCell id="bNWo4qMjO5p3vfD7yrDm-15" value="" style="rounded=0;whiteSpace=wrap;html=1;fillColor=#f5f5f5;fontColor=#333333;strokeColor=#666666;" parent="1" vertex="1">
          <mxGeometry x="711" y="160" width="80" height="390" as="geometry" />
        </mxCell>
        <mxCell id="bNWo4qMjO5p3vfD7yrDm-16" value="" style="rounded=0;whiteSpace=wrap;html=1;fillColor=#f5f5f5;fontColor=#333333;strokeColor=#666666;imageHeight=20;" parent="1" vertex="1">
          <mxGeometry x="741" y="550" width="50" height="53" as="geometry" />
        </mxCell>
      </root>
    </mxGraphModel>
  </diagram>
  <diagram name="Decke und Betonträger" id="pxmdkLOjT8xKA3rRRwZG">
    <mxGraphModel dx="1306" dy="821" grid="1" gridSize="10" guides="1" tooltips="1" connect="1" arrows="1" fold="1" page="1" pageScale="1" pageWidth="827" pageHeight="1169" math="0" shadow="0">
      <root>
        <mxCell id="TyFNTDzyKUzdhMpei_I--0" />
        <mxCell id="TyFNTDzyKUzdhMpei_I--1" parent="TyFNTDzyKUzdhMpei_I--0" />
        <mxCell id="TyFNTDzyKUzdhMpei_I--2" value="" style="rounded=0;whiteSpace=wrap;html=1;fillColor=#d0cee2;strokeColor=#56517e;" parent="TyFNTDzyKUzdhMpei_I--1" vertex="1">
          <mxGeometry x="96" y="117" width="640" height="40" as="geometry" />
        </mxCell>
        <mxCell id="TyFNTDzyKUzdhMpei_I--4" value="" style="rounded=0;whiteSpace=wrap;html=1;fillColor=#f5f5f5;fontColor=#333333;strokeColor=#666666;" parent="TyFNTDzyKUzdhMpei_I--1" vertex="1">
          <mxGeometry x="40" y="160" width="80" height="390" as="geometry" />
        </mxCell>
        <mxCell id="TyFNTDzyKUzdhMpei_I--5" value="" style="rounded=0;whiteSpace=wrap;html=1;fillColor=#f5f5f5;fontColor=#333333;strokeColor=#666666;imageHeight=20;" parent="TyFNTDzyKUzdhMpei_I--1" vertex="1">
          <mxGeometry x="40" y="117" width="50" height="43" as="geometry" />
        </mxCell>
        <mxCell id="TyFNTDzyKUzdhMpei_I--6" value="30" style="shape=dimension;direction=north;whiteSpace=wrap;html=1;align=center;points=[];verticalAlign=bottom;labelBackgroundColor=none;horizontal=0;spacingBottom=3;" parent="TyFNTDzyKUzdhMpei_I--1" vertex="1">
          <mxGeometry x="180" y="117" width="10" height="40" as="geometry" />
        </mxCell>
        <mxCell id="TyFNTDzyKUzdhMpei_I--7" value="50" style="shape=dimension;direction=north;whiteSpace=wrap;html=1;align=center;points=[];verticalAlign=bottom;labelBackgroundColor=none;horizontal=0;spacingBottom=3;rotation=90;" parent="TyFNTDzyKUzdhMpei_I--1" vertex="1">
          <mxGeometry x="75" y="220" width="10" height="80" as="geometry" />
        </mxCell>
        <mxCell id="TyFNTDzyKUzdhMpei_I--8" value="30" style="shape=dimension;direction=north;whiteSpace=wrap;html=1;align=center;points=[];verticalAlign=bottom;labelBackgroundColor=none;horizontal=0;spacingBottom=3;rotation=90;" parent="TyFNTDzyKUzdhMpei_I--1" vertex="1">
          <mxGeometry x="100" y="170" width="10" height="29" as="geometry" />
        </mxCell>
        <mxCell id="TyFNTDzyKUzdhMpei_I--11" value="" style="rounded=0;whiteSpace=wrap;html=1;fillColor=#f5f5f5;fontColor=#333333;strokeColor=#666666;" parent="TyFNTDzyKUzdhMpei_I--1" vertex="1">
          <mxGeometry x="711" y="160" width="80" height="390" as="geometry" />
        </mxCell>
        <mxCell id="YM4KHrIrMXbL62gGPkuM-0" value="" style="rounded=0;whiteSpace=wrap;html=1;fillColor=#f5f5f5;fontColor=#333333;strokeColor=#666666;imageHeight=20;" parent="TyFNTDzyKUzdhMpei_I--1" vertex="1">
          <mxGeometry x="741" y="117" width="50" height="43" as="geometry" />
        </mxCell>
        <mxCell id="TyFNTDzyKUzdhMpei_I--10" value="" style="rounded=0;whiteSpace=wrap;html=1;fillColor=#d0cee2;strokeColor=#56517e;" parent="TyFNTDzyKUzdhMpei_I--1" vertex="1">
          <mxGeometry x="90" y="522" width="650" height="28" as="geometry" />
        </mxCell>
        <mxCell id="YM4KHrIrMXbL62gGPkuM-1" value="375" style="shape=dimension;direction=north;whiteSpace=wrap;html=1;align=center;points=[];verticalAlign=bottom;labelBackgroundColor=none;horizontal=0;spacingBottom=3;rotation=90;" parent="TyFNTDzyKUzdhMpei_I--1" vertex="1">
          <mxGeometry x="410" y="-285" width="10" height="750" as="geometry" />
        </mxCell>
        <mxCell id="YM4KHrIrMXbL62gGPkuM-2" value="30" style="shape=dimension;direction=north;whiteSpace=wrap;html=1;align=center;points=[];verticalAlign=bottom;labelBackgroundColor=none;horizontal=0;spacingBottom=3;rotation=90;" parent="TyFNTDzyKUzdhMpei_I--1" vertex="1">
          <mxGeometry x="720" y="170" width="10" height="29" as="geometry" />
        </mxCell>
      </root>
    </mxGraphModel>
  </diagram>
  <diagram name="V2 Decke und Betonträger" id="OGJ_X4SFWolKyAGEgCQz">
    <mxGraphModel dx="1306" dy="821" grid="1" gridSize="10" guides="1" tooltips="1" connect="1" arrows="1" fold="1" page="1" pageScale="1" pageWidth="827" pageHeight="1169" math="0" shadow="0">
      <root>
        <mxCell id="NADhYAh0e_JGM8K3awE5-0" />
        <mxCell id="NADhYAh0e_JGM8K3awE5-1" parent="NADhYAh0e_JGM8K3awE5-0" />
        <mxCell id="NADhYAh0e_JGM8K3awE5-2" value="" style="rounded=0;whiteSpace=wrap;html=1;fillColor=#d0cee2;strokeColor=#56517e;" vertex="1" parent="NADhYAh0e_JGM8K3awE5-1">
          <mxGeometry x="96" y="117" width="640" height="40" as="geometry" />
        </mxCell>
        <mxCell id="NADhYAh0e_JGM8K3awE5-3" value="" style="rounded=0;whiteSpace=wrap;html=1;fillColor=#f5f5f5;fontColor=#333333;strokeColor=#666666;" vertex="1" parent="NADhYAh0e_JGM8K3awE5-1">
          <mxGeometry x="40" y="160" width="80" height="390" as="geometry" />
        </mxCell>
        <mxCell id="NADhYAh0e_JGM8K3awE5-4" value="" style="rounded=0;whiteSpace=wrap;html=1;fillColor=#f5f5f5;fontColor=#333333;strokeColor=#666666;imageHeight=20;" vertex="1" parent="NADhYAh0e_JGM8K3awE5-1">
          <mxGeometry x="40" y="117" width="50" height="43" as="geometry" />
        </mxCell>
        <mxCell id="NADhYAh0e_JGM8K3awE5-5" value="30" style="shape=dimension;direction=north;whiteSpace=wrap;html=1;align=center;points=[];verticalAlign=bottom;labelBackgroundColor=none;horizontal=0;spacingBottom=3;" vertex="1" parent="NADhYAh0e_JGM8K3awE5-1">
          <mxGeometry x="180" y="117" width="10" height="40" as="geometry" />
        </mxCell>
        <mxCell id="NADhYAh0e_JGM8K3awE5-6" value="50" style="shape=dimension;direction=north;whiteSpace=wrap;html=1;align=center;points=[];verticalAlign=bottom;labelBackgroundColor=none;horizontal=0;spacingBottom=3;rotation=90;" vertex="1" parent="NADhYAh0e_JGM8K3awE5-1">
          <mxGeometry x="75" y="220" width="10" height="80" as="geometry" />
        </mxCell>
        <mxCell id="NADhYAh0e_JGM8K3awE5-7" value="30" style="shape=dimension;direction=north;whiteSpace=wrap;html=1;align=center;points=[];verticalAlign=bottom;labelBackgroundColor=none;horizontal=0;spacingBottom=3;rotation=90;" vertex="1" parent="NADhYAh0e_JGM8K3awE5-1">
          <mxGeometry x="100" y="170" width="10" height="29" as="geometry" />
        </mxCell>
        <mxCell id="NADhYAh0e_JGM8K3awE5-8" value="" style="rounded=0;whiteSpace=wrap;html=1;fillColor=#f5f5f5;fontColor=#333333;strokeColor=#666666;" vertex="1" parent="NADhYAh0e_JGM8K3awE5-1">
          <mxGeometry x="707" y="160" width="29" height="360" as="geometry" />
        </mxCell>
        <mxCell id="NADhYAh0e_JGM8K3awE5-10" value="" style="rounded=0;whiteSpace=wrap;html=1;fillColor=#d0cee2;strokeColor=#56517e;" vertex="1" parent="NADhYAh0e_JGM8K3awE5-1">
          <mxGeometry x="86" y="522" width="650" height="28" as="geometry" />
        </mxCell>
        <mxCell id="NADhYAh0e_JGM8K3awE5-12" value="30" style="shape=dimension;direction=north;whiteSpace=wrap;html=1;align=center;points=[];verticalAlign=bottom;labelBackgroundColor=none;horizontal=0;spacingBottom=3;rotation=90;" vertex="1" parent="NADhYAh0e_JGM8K3awE5-1">
          <mxGeometry x="720" y="170" width="10" height="29" as="geometry" />
        </mxCell>
      </root>
    </mxGraphModel>
  </diagram>
  <diagram name="Copy of Decke und Betonträger" id="NxXWbkH-fYnOdKeSSa97">
    <mxGraphModel dx="1306" dy="821" grid="1" gridSize="10" guides="1" tooltips="1" connect="1" arrows="1" fold="1" page="1" pageScale="1" pageWidth="827" pageHeight="1169" math="0" shadow="0">
      <root>
        <mxCell id="tARdcCmo3QFQ5GC-vq3U-0" />
        <mxCell id="tARdcCmo3QFQ5GC-vq3U-1" parent="tARdcCmo3QFQ5GC-vq3U-0" />
        <mxCell id="tARdcCmo3QFQ5GC-vq3U-2" value="" style="rounded=0;whiteSpace=wrap;html=1;fillColor=#d0cee2;strokeColor=#56517e;" parent="tARdcCmo3QFQ5GC-vq3U-1" vertex="1">
          <mxGeometry x="96" y="117" width="640" height="40" as="geometry" />
        </mxCell>
        <mxCell id="tARdcCmo3QFQ5GC-vq3U-3" value="" style="rounded=0;whiteSpace=wrap;html=1;fillColor=#f5f5f5;fontColor=#333333;strokeColor=#666666;" parent="tARdcCmo3QFQ5GC-vq3U-1" vertex="1">
          <mxGeometry x="40" y="160" width="80" height="520" as="geometry" />
        </mxCell>
        <mxCell id="tARdcCmo3QFQ5GC-vq3U-4" value="" style="rounded=0;whiteSpace=wrap;html=1;fillColor=#f5f5f5;fontColor=#333333;strokeColor=#666666;imageHeight=20;" parent="tARdcCmo3QFQ5GC-vq3U-1" vertex="1">
          <mxGeometry x="40" y="117" width="50" height="43" as="geometry" />
        </mxCell>
        <mxCell id="tARdcCmo3QFQ5GC-vq3U-5" value="30" style="shape=dimension;direction=north;whiteSpace=wrap;html=1;align=center;points=[];verticalAlign=bottom;labelBackgroundColor=none;horizontal=0;spacingBottom=3;" parent="tARdcCmo3QFQ5GC-vq3U-1" vertex="1">
          <mxGeometry x="180" y="117" width="10" height="40" as="geometry" />
        </mxCell>
        <mxCell id="tARdcCmo3QFQ5GC-vq3U-8" value="" style="rounded=0;whiteSpace=wrap;html=1;fillColor=#f5f5f5;fontColor=#333333;strokeColor=#666666;" parent="tARdcCmo3QFQ5GC-vq3U-1" vertex="1">
          <mxGeometry x="711" y="160" width="80" height="520" as="geometry" />
        </mxCell>
        <mxCell id="tARdcCmo3QFQ5GC-vq3U-9" value="" style="rounded=0;whiteSpace=wrap;html=1;fillColor=#f5f5f5;fontColor=#333333;strokeColor=#666666;imageHeight=20;" parent="tARdcCmo3QFQ5GC-vq3U-1" vertex="1">
          <mxGeometry x="741" y="117" width="50" height="43" as="geometry" />
        </mxCell>
        <mxCell id="tARdcCmo3QFQ5GC-vq3U-10" value="" style="rounded=0;whiteSpace=wrap;html=1;fillColor=#d0cee2;strokeColor=#56517e;" parent="tARdcCmo3QFQ5GC-vq3U-1" vertex="1">
          <mxGeometry x="90" y="522" width="650" height="28" as="geometry" />
        </mxCell>
        <mxCell id="tARdcCmo3QFQ5GC-vq3U-11" value="375" style="shape=dimension;direction=north;whiteSpace=wrap;html=1;align=center;points=[];verticalAlign=bottom;labelBackgroundColor=none;horizontal=0;spacingBottom=3;rotation=90;" parent="tARdcCmo3QFQ5GC-vq3U-1" vertex="1">
          <mxGeometry x="410" y="-285" width="10" height="750" as="geometry" />
        </mxCell>
        <mxCell id="t_UBuEl-bmohPQ0kJi-u-1" value="" style="rounded=0;whiteSpace=wrap;html=1;fillColor=#d0cee2;strokeColor=#56517e;" parent="tARdcCmo3QFQ5GC-vq3U-1" vertex="1">
          <mxGeometry x="40" y="684" width="80" height="226" as="geometry" />
        </mxCell>
        <mxCell id="t_UBuEl-bmohPQ0kJi-u-2" value="" style="rounded=0;whiteSpace=wrap;html=1;fillColor=#d0cee2;strokeColor=#56517e;" parent="tARdcCmo3QFQ5GC-vq3U-1" vertex="1">
          <mxGeometry x="710" y="684" width="80" height="226" as="geometry" />
        </mxCell>
        <mxCell id="t_UBuEl-bmohPQ0kJi-u-3" value="270" style="shape=dimension;direction=south;whiteSpace=wrap;html=1;align=center;points=[];verticalAlign=top;labelBackgroundColor=none;horizontal=0;spacingTop=-15;" parent="tARdcCmo3QFQ5GC-vq3U-1" vertex="1">
          <mxGeometry x="150" y="160" width="40" height="360" as="geometry" />
        </mxCell>
        <mxCell id="t_UBuEl-bmohPQ0kJi-u-4" value="300" style="shape=dimension;direction=south;whiteSpace=wrap;html=1;align=center;points=[];verticalAlign=top;labelBackgroundColor=none;horizontal=0;spacingTop=-15;" parent="tARdcCmo3QFQ5GC-vq3U-1" vertex="1">
          <mxGeometry x="150" y="550" width="40" height="360" as="geometry" />
        </mxCell>
        <mxCell id="t_UBuEl-bmohPQ0kJi-u-5" value="" style="rounded=0;whiteSpace=wrap;html=1;fillColor=#d0cee2;strokeColor=#56517e;" parent="tARdcCmo3QFQ5GC-vq3U-1" vertex="1">
          <mxGeometry x="40" y="910" width="750" height="28" as="geometry" />
        </mxCell>
        <mxCell id="t_UBuEl-bmohPQ0kJi-u-6" value="" style="rounded=0;whiteSpace=wrap;html=1;fillColor=#bac8d3;strokeColor=#23445d;" parent="tARdcCmo3QFQ5GC-vq3U-1" vertex="1">
          <mxGeometry x="26" y="932" width="780" height="48" as="geometry" />
        </mxCell>
      </root>
    </mxGraphModel>
  </diagram>
</mxfile>
